<?xml version="1.0" encoding="UTF-8" standalone="no"?>
<!-- Creator: CorelDRAW 2026 -->

<svg
   xml:space="preserve"
   width="297mm"
   height="210mm"
   version="1.1"
   style="shape-rendering:geometricPrecision; text-rendering:geometricPrecision; image-rendering:optimizeQuality; fill-rule:evenodd; clip-rule:evenodd"
   viewBox="0 0 297000 210000"
   id="svg182"
   sodipodi:docname="logo_vector.svg"
   inkscape:version="1.2.2 (b0a8486541, 2022-12-01)"
   xmlns:inkscape="http://www.inkscape.org/namespaces/inkscape"
   xmlns:sodipodi="http://sodipodi.sourceforge.net/DTD/sodipodi-0.dtd"
   xmlns="http://www.w3.org/2000/svg"
   xmlns:svg="http://www.w3.org/2000/svg"><sodipodi:namedview
   id="namedview184"
   pagecolor="#ffffff"
   bordercolor="#000000"
   borderopacity="0.25"
   inkscape:showpageshadow="2"
   inkscape:pageopacity="0.0"
   inkscape:pagecheckerboard="0"
   inkscape:deskcolor="#d1d1d1"
   inkscape:document-units="mm"
   showgrid="false"
   inkscape:zoom="0.6715377"
   inkscape:cx="529.38204"
   inkscape:cy="398.33951"
   inkscape:window-width="1366"
   inkscape:window-height="706"
   inkscape:window-x="0"
   inkscape:window-y="0"
   inkscape:window-maximized="1"
   inkscape:current-layer="Camada_x0020_1" />
 <defs
   id="defs119">
  <style
   type="text/css"
   id="style117">
   <![CDATA[
    .fil2 {fill:#F7F7F6}
    .fil1 {fill:#F3F2F3}
    .fil0 {fill:#DD4538}
    .fil9 {fill:#D4D4D4}
    .fil13 {fill:#C5C1BE}
    .fil14 {fill:#B8B7B7}
    .fil6 {fill:#B1AFAD}
    .fil7 {fill:#A09E9D}
    .fil8 {fill:#989897}
    .fil10 {fill:#928F8E}
    .fil5 {fill:#86817F}
    .fil12 {fill:#797777}
    .fil4 {fill:#31302F}
    .fil11 {fill:#393A39}
    .fil3 {fill:#333232}
   ]]>
  </style>
 </defs>
 <g
   id="Camada_x0020_1"
   inkscape:label="Camada 1">
  <metadata
   id="CorelCorpID_0Corel-Layer" />
  <path
   class="fil0"
   d="M45918.8 105798.7c-633.7,-332.6 -202,-397.2 -561.6,-875.7 -311,-413.8 -125.6,-537.1 -368.9,-887.8 -199.6,-287.9 -131.6,4.6 -239.7,-401.9 -319.6,-1200.3 -628.1,-1479.7 -710.4,-1825.7 -199.2,-836.4 -131.5,68.9 -355.1,-917.5l-356.8 -940.6c-100.4,-317.2 -102.5,-155.4 -209.8,-391.4 -206.6,-454.8 62,-425.4 -446.1,-780.8 -32.6,-707.2 -135.2,-501.3 -338,-966.6 -67.8,-155.7 -61,-336.8 -102.7,-473.1 -116.1,-378.1 -126.9,-143.1 -233.6,-377.6 -58.9,-129.8 -73.2,-386.8 -145,-533.6 -97.3,-199.1 -142.1,-127.3 -229.9,-358.8 -63.8,-168.1 -51.7,-338.5 -108.5,-491.8 -62.2,-167.6 -123.4,-143.6 -223.7,-366.4 -97,-214.9 -58.4,-342.1 -138,-551.2 -54.9,-144.2 -143.1,-193.8 -215.5,-389.2 -46.7,-126.1 -72,-327.8 -124.5,-466.3 -62.7,-165.1 -152.2,-242.9 -209.4,-383.9 -70.9,-174.8 -43.5,-271.2 -141,-453.8 -137.4,-257.2 -123.9,-67.7 -225.3,-365.4l-339.9 -844.1c-74.1,-167.8 -94.1,-338.9 -173,-501.8 -55.7,-114.9 -170.4,-253.4 -211.3,-376.3 -60.4,-181.7 -31.7,-297.5 -105,-503.3 -92,-258.9 -99.8,-140.6 -215.4,-371.8 -481,-962.1 -388,-1083.4 -482.3,-1302.9 -99.1,-230.9 -99.6,-65.7 -240.6,-340.5l-516.1 -1339.5c-58.9,-149.3 -162.9,-263.4 -209.6,-383.3 -67.4,-173.2 -49.9,-331.6 -124,-487.2 -123.1,-258.7 -86,16.1 -220.8,-384.2 -190.5,-566.2 69.3,-391.7 -373.2,-780.4 -62.3,-430.2 -1.2,-446.1 -242.5,-775.7 -277.9,-379.9 -121.8,-463.7 -277.4,-759.3 -392.3,-745.3 -129.4,-440.4 -288.1,-725.1 -197.2,-353.8 -223.6,-69.1 -319.5,-623.5l-598.2 -1319.4c-198.2,-348.9 -83.5,-523.7 -246.5,-778.5 -236.7,-369.7 -205.1,-107 -261.9,-661.2 -322.4,-50.7 -95.4,40.3 -330,-123 -50,-864.3 -197.8,-615.9 -378.8,-1262.6 -122.3,-436.7 -168,-284.3 -271.8,-494 -104.8,-211.5 -14.2,-390.1 -151.4,-639.8l-570.9 -996.7c-257.8,-513.5 107.1,-563 -467.7,-1014.6 -39,-603.3 -1129.4,-3526.2 -1573.5,-3729.1 -1210.2,-222.9 -1986.4,-136 -2436.2,986.2 -160.3,399.9 242.2,1402.3 261.3,1432.1 528.5,822.3 9.5,110.8 539.6,1146.9 119.1,232.6 99.5,472.5 213.2,730.3l1288.8 3022.4c122.4,403.9 -16.1,215.1 228.7,616.1 169.9,278 146.1,380.1 187.1,708 244.1,234.3 262.4,206.7 319.3,599.9 76.7,531.2 24.5,174 234.2,593.1l472.3 1257.8c72.7,395.5 127.9,257.7 260.1,549.9 89.4,197.6 96.6,484.9 200.9,634.6 204.3,293.4 173.3,5.3 311.7,521.5l511 1273.5c168.3,282 117.5,364.2 201.2,651.4 106.2,364.8 220.3,236.1 302,535.8 210.5,772.3 678.1,1669.8 713.7,1853.5l453.6 1220.3c147.6,287.3 96,-15 202,314.1 41.6,128.9 25.9,247.6 64.5,378.2 47.8,161.4 209,336.6 285.9,549.4l439.4 1260.4c93.4,231.8 207.3,241.3 305.3,529.4l951 2423.1c251.4,398.7 94.8,278.9 224.2,642.5 116.1,326 168.5,113.3 282.9,548.5 125.6,478 108.9,231.2 285.3,541.2 146.5,257.6 58.3,452.9 176.4,689.1 121.4,243 186.8,127.7 276.4,564.8 117.7,574.4 452.9,720.6 378,1261.9 355.8,234.9 167.4,557.8 419.4,834.3 171.6,188.4 176.9,1.7 281.3,341.7 82.9,270 15.8,375.1 137.4,650.4 93.8,212.5 127.4,189.7 187,475.7 121.2,581.9 45.4,161.2 268.9,509.4 234.7,365.6 -67.2,387.2 474.1,923.1 23.2,897.3 154.7,479.3 311.4,987.2 75.4,244.4 10.3,347.8 123.9,571.9 58.4,115.5 236.9,229.7 288.4,363.5 95.1,247.1 -49,173.9 134.3,482.4 114.8,193 139.3,-11.2 222.4,412.3 186.8,952.1 660.1,1474.5 711,1915 50.1,433.6 213.5,630.6 347.2,1043 196.8,607.5 794.3,1244.5 618.8,1935.5 628.6,212.5 226.5,544.9 586.4,1020.9 260.2,344 118.7,80.1 235.5,535.2 100.7,392 156.5,249.7 260.2,496 97.8,232.3 18.2,309.9 172.9,595.8 480.9,888.5 96.8,578.2 462,1050.7 215.2,278.4 475.4,1379.2 671.4,1700.1l492.9 1024.4c109.7,252.1 56.8,429.4 138.2,643.4 116.8,306.6 120.2,3.7 249.1,523.8 62.7,252.9 417.2,775.6 594.7,982.2 724.5,475.2 2010,295.9 2499.5,-458.8 131.9,-203.4 472.6,-951.5 546.1,-1193.3 84.9,-279.1 174.6,-283.1 254.5,-590.9 79.7,-307 34.6,-521.8 194.1,-777 407.1,-651.2 641.4,-1785.3 1009.4,-2544.9 147.9,-305.5 145.7,-275.6 233.3,-618.4l557.2 -1216c283,-380.5 -41.5,-404.6 351,-661.3 -97.8,-502.8 472.4,-1110.8 581.4,-1707.3 71.6,-392.1 244.8,-353.8 343.1,-844 63.7,-318 240.5,-513 438.2,-689.8 23.6,-426.2 -30.6,-376.5 170.5,-730.5 180.8,-317.8 71.4,-345.4 204.9,-640.1 68,-150.2 261,-344.4 306.8,-518 102.7,-389.2 160.6,-904.8 430.3,-1287.7 383.1,-543.6 133.8,-680.3 506.8,-1186.6 191.6,-259.9 53.9,-341.4 252.8,-676.9 227.6,-383.8 151,-161.3 206.4,-629 59.7,-503.3 90,-250.2 283.1,-569.8 128.5,-212.6 89.5,-463.1 176.4,-672.2 114.6,-276 215.7,-150.4 288.1,-630.5 95.6,-633.8 432.3,-1437.1 641.6,-1927 114.4,-268.1 186.1,-296.8 382.4,-512.7 26.3,-654.1 20.7,-401.4 244.8,-887.4 66,-143.1 84.8,-319.9 123,-477.8 107.2,-443.4 -29.9,-41.6 215.3,-362.5 220.7,-288.7 52.2,-494.8 243,-872.1l320.3 -861.1c115.8,-179.9 92,52.5 217.9,-292 62.4,-171 29.9,-264.9 115.4,-476.1l295.8 -913.1c42.4,-185.1 120.7,-220.4 167.4,-319.2 122.5,-259.1 54.8,-257.2 114,-517 78.8,-345.5 279.3,-419.9 367.9,-807.3 134.3,-586.8 504.3,-1028.5 683.7,-1593.5 34,-107.1 66,-332.6 88.7,-426.4 103.6,-427.2 -37.7,24.6 211.6,-352.4 199.1,-301 138.7,-566.9 326.7,-855.3 244.8,-375.6 121.3,-511.9 285.2,-822.9 471.4,-893.8 139.7,-479 340.9,-840.7 309.4,-556.7 132.7,-439.3 297.6,-907.4 144.9,-411.6 305.6,-20.7 320.3,-882.9 514.4,-469.8 154.3,-468.1 349.6,-841.7 28.2,-54 218.2,-134.3 310.9,-509.6 130,-526.8 157.1,-311.9 329,-665.3 134.7,-276.2 50.5,-376.5 261,-753.1 233.1,-417.2 165,-468 204.6,-950 476.8,-298.5 171.3,-458.4 427.8,-872.8 188.3,-304 245.3,-779.1 270.1,-1155.9 304.8,-113.7 334.1,-200.9 322.7,-851.1 598.2,-360.8 76.4,-783.5 645.6,-1054.1l46.2 -638.3 275.8 -227.5 63.3 -788.3c206.7,-138.5 16.3,-70.2 361.8,-146.5 128.3,-1202.6 607.3,-1021.1 1675.2,-1024.1 28475.9,-80.4 56951.7,91.8 85427.7,89.2 3641.6,-0.3 7277.1,57.1 10922,76.6 3624.2,19.4 7411.2,-114.5 11009.8,4.7 3632.5,120.3 7279.9,74.7 10918.8,78.1l52408.7 88.1c646,0 2155.1,153.8 2624.3,-184.7 -325.8,-345.3 -567.6,-506.9 -897.8,-882.2 -584.8,-664.5 -1336.5,-1161.9 -1849.6,-1874.2 -244.6,-339.6 -623,-601.4 -957.9,-910.1l-1295 -1411.2c-308.1,-302.4 -645.4,-569.4 -923.3,-947.2 -428.8,-583.2 -1624.2,-1517.4 -2327.9,-2235.4 -362.8,-370.2 -496.1,-695.3 -1088.2,-1192.5l-2609.7 -2563.3c-557.7,-711.1 -1247.5,-1216.9 -1807.2,-1927.7 -688.3,-874.3 -765.7,-941.3 -1279.9,-933.1l-26.5 11046c-570.8,460.1 -1592.8,282 -2293.3,281.9 -52182.7,-7.6 -104365.9,-73.1 -156548.6,-0.1 -1094.2,1.5 -2305,-132.7 -3233.2,576.4l-655.9 665.6c-91.2,378.4 0,521.1 -376.6,701.4l-37.9 594.9c-440.3,330.2 -276.3,367 -437.4,815.8 -218.6,608.9 -288.6,172.2 -280.2,980 -646.4,626.1 -134.6,604.4 -501.3,1221.2 -338.4,569.3 -28.4,676.2 -533.4,1123.9 -5.4,615.2 -31,585.1 -347.7,1022.8 -8.8,133.8 -9,383.3 -30.4,503.3 -74.8,417.6 -12.3,54.3 -172.7,334.3l-540.2 1584.3c-208.9,455 -258.5,266.4 -257.2,874.2 -712,682.2 -174,502.2 -507.8,1065.3 -162.1,273.5 -171.7,267.7 -260.1,590.1 -166,605 -374.5,656.2 -415.3,1389.3l-276.8 180.4c-122.8,737.1 -257.1,454.9 -386.5,881.9 -69,227.6 1.8,252.3 -108.7,499 -56.4,126 -192.2,272 -249.5,417.6l-469 1394.4c-73.8,191.9 -144.8,140.4 -228.9,445.7 -37.7,136.7 -65.6,357 -117.2,480.3 -152.8,365.3 -502.3,955.5 -602.5,1334.1 -144.7,546.7 -219.8,488.6 -339.6,931.8 -148.3,548.9 -93.4,385.4 -422.4,818.5l-30.9 599.6c-361.1,407.9 -267.7,628.7 -647.3,1010 -49,1005.2 -188.3,789.4 -411.4,1569.9 -75.3,263.3 -196.3,375.4 -267.8,666.5 -107.9,438.8 15.7,374.6 -223.2,805.2 -497.6,896.7 -788.9,2068.8 -979.2,2406.6 -95,168.6 -97.8,41.9 -201,291.9 -99.5,240.8 -66.6,517.3 -177.4,763.4l-599.5 1338.7c-54.8,181.1 -37.6,282.5 -83.8,426.8 -77.1,240.8 -120.7,150.9 -196,316.9 -118,260.1 -6.4,370.5 -200.1,738.8 -397.3,755.1 -440.2,1605.3 -933.6,2001.6 -28.5,777.8 -56.8,442.6 -259.4,955.9 -126.4,320.1 -116.6,550.7 -315.8,871 -252.3,405.6 -114.6,577.3 -316.8,865.7 -209.9,299.4 -106.5,-72.4 -214.8,356.5 -185,732.8 -638.9,1489.1 -696.4,1673.5 -67.5,216.7 -28.1,327.1 -98,507.2 -185.6,478.5 -220.9,64.8 -312.3,870.2 -53,466.5 -227.1,417.2 -311.2,979.5 -254.7,188 -222.5,239.4 -535.3,278 -128.5,-342 -151.7,-438.8 -337.8,-763.4 -99.7,-174.1 -393.2,-1278.8 -619.6,-1672.4 -270.7,-470.5 -110.1,-576.2 -310.6,-875.8 -342.4,-511.9 -464.6,-1010.5 -719.6,-1566.1 -378.9,-825.3 -190.3,-579.6 -295.2,-814.3 -172.9,-387 -355,-1 -354.7,-739.6zm27252.5 -2028.1c-466.4,-1030 -336.4,-114 -354,-2112.5 -35.1,-3960 -431.3,-5197.2 2525.9,-7498.6 1249.8,-972.6 701,-441.2 1129.2,-732.9 212.9,-145.1 111.1,-171.4 433.8,-214 1599.7,-211.5 16510.4,207 19728.4,235.3 528.2,4.7 1983.2,-42.3 2390.4,154.1 223.5,107.9 145.1,156.4 345,232.5 300.7,114.5 181,-63.9 489,197.6 490.8,416.4 1355.2,803.1 1797.9,1939.8 341.7,877.1 404.5,251.5 417,2130.4 4,600.7 42.1,1746 123.5,2315.6 101.1,706.1 35,1754.4 50,2510.2 8.1,403.8 122.3,853 -275.8,948.8l-8808.4 20.4c-3330.2,0.1 -6660.5,-10.6 -9990.6,-10.3 -1561.8,0.1 -9090.8,105.1 -10001.3,-116.4zm-3155.1 -7798.8c-344.2,1022.2 -177.8,12155 -178.6,14915 -0.2,754 79,1409.8 81.8,2132.5 404,402.3 154.3,188.6 341.3,684.9 97.6,259.2 77.2,120 208,309.3 157.4,227.8 76.7,232.6 165.2,419.3 303.2,639.5 968.3,1308.1 1389.5,1755l1573.4 1642.1c409.5,178.9 183.5,214 767.2,294.6 383.3,443.5 144.1,172.6 608.6,460.3 528,326.9 469.9,147.9 877.4,325.5 489.8,213.6 -396.5,-20.1 859.4,319.6 346.5,93.8 470.4,257.8 872.2,293.4 1353,119.9 3325,8 4744.3,8l18880.7 4.9c439.4,0 1989.5,82.8 2283.3,-105.9 123.4,-79.4 192.8,-209.1 285.5,-300.7 352.3,-348.3 356.1,-574.9 304.5,-1472.9 -91.3,-1592 -2348.8,-1161.5 -3550.7,-1161.5 -6293.4,0 -12587.2,33.7 -18880.6,32.8 -880.3,-0.2 -4019.1,113.8 -4627.2,-155.7 -185.5,-82.2 -132.5,-132.3 -380.9,-208.4 -405.3,-124.2 -804.2,-322.1 -1168.7,-623.4 -216.6,-179.1 -470.2,-332.2 -654.3,-539.8 -184.7,-208.2 -37.2,-155.4 -253,-309.9 -517.7,-370.7 -156.5,167.1 -931.4,-884.1 -686.2,-930.8 -204,102 -697.1,-1059.3 -208,-489.8 -135,259.9 -465.2,-1295.4 -140.1,-660 -82.6,-3961.5 273.2,-4374.4l31260.8 -54.7c477.4,-444 588.5,-181.9 1106.8,-780.4l3.5 -8394.4c-1.9,-724.6 3.5,-607 -239.3,-1215.1 -46.9,-117.4 -347.6,-1260.6 -570.1,-1553.4 -225.8,-297.2 -93.6,19.8 -242.4,-428.1l-819.3 -1296.8c-200.5,-252.4 -427.5,-365.2 -711.4,-723.4 -421.8,-532.1 -1537.5,-1334.6 -2047.1,-1519.8 -245.1,-89.1 -288.8,-197.1 -413.9,-261.2 -217.5,-111.3 -316.3,-43.8 -590.7,-179.6 -608.4,-301 -1753.5,-333.4 -2507.8,-326.7 -2903.8,25.5 -20672.7,-117.1 -21193,114.5 -368.4,164 101.6,278 -846.5,329.3 -421.1,541.1 -344.2,157.1 -842.9,437.2l-2057.6 1748.6c-174.5,186.9 -479.7,469.1 -608.6,677 -391.1,630.7 -210.7,213.2 -476.3,791.5 -497.3,1082.6 -514.1,783.9 -636.4,1018.6 -208.7,400.6 160.6,294.9 -295.6,511.1zm103750.1 1286.1c50.2,-882.7 1481.7,-2572.9 2180.4,-3060 109.4,-76.3 1006.9,-734.9 1020.8,-741 287.2,-126.2 304.6,60.7 703.3,-167.1 570.6,-326.1 1764.8,-187.7 2445.1,-186.3 2410.4,4.9 22212,-60.8 22660.8,62.2l1143.2 618.7c1140.5,677.5 1832.9,1631 2555.5,2672.2 467.1,673.4 91.5,821 384.4,1401.3 329.6,653 143,5728.8 143,6848.2 0,2342.7 17,4688 -12.1,7029.4 -364.7,565 -155.5,216.7 -318.3,832.1 -78.9,298.7 -1225.7,1839.4 -1594.1,2200.1 -952.2,932.3 -1874.6,1694 -3287.9,1715.9 -6404,99.3 -13494.2,-7.5 -19981.2,-10.9l-3709.6 -24c-292.5,-50.7 -560.3,-234.1 -949.6,-305.8 -840.9,-155.1 -2446.9,-1554.1 -2706.4,-2395.9 -11.6,-118.2 -403.6,-730.3 -507.4,-836.4 -395.1,-404.1 -131.3,-767.6 -241.2,-1102.8 -154.8,-472.3 -308.4,343.9 -307.8,-1598.4l0 -9651.9c0,-708.8 -146.6,-2037.2 219.4,-2615.8 170.5,-269.5 179.3,-355.3 159.7,-683.8zm-369.5 -4937.7l-21.7 228.9c-536.7,195.9 -1205.2,1308.4 -1542.8,1753.4l-487.6 896.3c-127.4,299.5 -61.2,69 -314.6,347.8 -54,496.7 -92.4,588.4 -184.7,1029.5 -43.9,209.8 -13,324.6 -69,525.5 -39.9,142.9 -100.6,241.8 -136.5,433.1 -121.4,647 -51.9,6230.5 -41.5,7086.8 12.7,1036.9 -153.9,7246.7 225.5,8090.6 197.4,439.2 137.2,626.3 236.8,1059.9 435,317.1 177.6,371.3 442.1,725.4 500.1,669.5 149.2,526 1517.3,2045.9l885.2 899.5c471,431.1 -199.8,11.4 674.9,522.3 542.2,316.6 -131.4,-223.7 1068.4,688.2 338.6,257.4 537.5,128.5 870.5,308.6 558.2,301.9 299.2,186.1 976.6,230.7 294.2,19.3 656.3,129.1 983.4,176.4l22464.8 158.4c671.4,-4.4 1650.1,172.8 2126.8,-310.9 420.8,-25.7 595.8,-16.4 947.7,-251.5 433,-289.3 642.2,-19.9 895.1,-368.2l263.3 -18.7c294.6,-23 1114.4,-743.7 1312.8,-967 223.3,-251.3 1270.3,-990.3 1535.3,-1514 130.4,-257.8 -21,-143.4 188.6,-400.1 718.9,-880.5 362.3,-728.1 728.9,-1119.4 604.4,-644.9 577.8,-1313.5 578,-1313.8 561,-553.7 303.7,-1232.7 436.1,-1932.1 63.3,-334.3 190.2,-578.8 210.4,-951.7 20.2,-373.4 3.2,-805.8 5.9,-1186.5 9.1,-1287.4 143.1,-11260.4 -70.8,-11774.5 -233.2,-560.6 -199.6,-204.1 -257.9,-929.2 -44.9,-559.1 -241.8,-296.6 -297.5,-1017.1 -376.9,-236.9 -557,-879.3 -814.5,-1349.2 -613.9,-1120 -2548.2,-3052.4 -3764.4,-3511.2 -1773.9,-669.3 -2135.1,-688.1 -4108.5,-688l-19473.3 5.6c-836.3,0.2 -1546,10.6 -2368,68.1 -824.6,57.6 -1356.5,282.6 -2200.3,266.6 -352,494.1 -381.5,371 -1011.4,419.5 -316.2,255.8 -262.3,201.1 -613.9,383.9 -1284.1,667.5 -529.3,320 -937.2,585.4 -28.5,18.6 -770.4,247.6 -858.3,666.8zm-57047.9 -1876.1c-50.1,2.4 -892.3,262.8 -946.7,284.9 -207.8,84.1 -189.2,189.5 -302.1,265.3 -221.4,148.7 -233.8,38.9 -454.6,154.2 -393,205.1 -976.6,735.9 -1345.2,1017.1 -330.1,251.8 -1561,1725.1 -1672.6,1945.4 -133.9,264 -84.1,157.2 -256.6,360.1 -120.8,142.1 -1126.2,2721.2 -1149.5,3033.7 -28.6,382.9 -11.3,808.1 -49.7,1184.9 -151.4,1478.7 -61.4,7615.9 -61.4,9572.4 0,818.4 -2.1,1636.9 0.9,2455.4 8.1,2220.4 -20.9,1798.8 492.7,3141.4l402.2 783.6c301.7,651.7 1575.2,2190.1 2191.7,2622.5 200.1,140.2 254,114.5 393.2,207.4 154.8,103.2 114.7,155.9 322.3,286.1 288.3,180.8 447,361 830.1,380.3l184.6 278.2c617.5,178.1 305,-25.4 751.8,440.3 563.2,41.6 356.4,36.1 788.5,234 218.6,100.2 532.4,104.4 792,223.5 775.3,355.7 863.1,238.6 1726.1,250.8 1325.6,18.7 2653.4,9.8 3979.3,9.7l19727.4 -11.4c607.9,0.9 1301.7,160.4 1664.2,-335.4 517.4,-707.6 401.6,-703.4 404.9,-1583.2 -431.7,-451.5 -230.2,-196 -395.6,-808.2 -440.1,-139.4 -336,-166.5 -650,-360.6l-24306.9 -17.4c-3319.8,1.4 -1451,-201 -2917.1,-428.1 -223.3,-28.5 -438.6,-189.2 -618.3,-331.4l-176.2 -160c-11.8,-7.7 -135.4,-54.6 -219,-107.7 -400.2,-254.5 -1260.1,-1329.5 -1472.2,-1681.6 -235.3,-390.3 -330.1,-664.6 -388.2,-1152 -607.5,-405.4 -511.3,-2790.4 -511.3,-3489.4l11.9 -12007.4c179.7,-195.6 435.9,-435.6 512.8,-700.5 119.8,-413.1 176.8,-530.3 379.2,-827.9 687.6,-1011.7 2413.7,-2360 3523.7,-2513.7 498.2,-68.9 541.4,-169 877.9,-258.5 677.3,-180.1 21659.1,-43 23941.4,-53.8 2043.5,-9.7 2766.7,319.7 2289.6,-2164.1 -506.1,-340.2 -720.6,-373.5 -1357.9,-372.1 -3374.4,7.1 -24620.6,-148.8 -25370.5,6.5 -541,112.2 -972,313.5 -1566.8,226.7zm33210.4 22634.8l285.3 281.2c89.8,1023.1 602.4,1412.4 980.7,2272.4 247.2,562.2 1044.8,1289.1 1544.7,1666 234,176.5 653.4,439.9 830.9,614.7 1048.4,1033.2 843.8,476.9 2011.6,1199.2 540.3,334.2 443.1,-44.1 1055,527.4 2162.9,213.8 4474.3,106.4 6661,124.7 922,7.8 2182.2,238.7 2807.2,-562.7 514.7,-660.2 437.4,-2214.2 -355.8,-2450.2 -332,-98.8 -5702.3,-28.3 -6854.1,-37.8 -1594.8,-13.1 -2013,-471.5 -2696.8,-681.9 -345,-105.9 -126.2,-68.5 -342.5,-242.6 -200.7,-161.6 -219.8,-86.3 -408.4,-190.3 -94.7,-52.3 -1084.6,-951.6 -1203,-1077.2 -406.9,-432.1 -1028.2,-1631.6 -1154.5,-2254 -94.6,-465.9 -291.1,-345.9 -320.2,-865.9 -104,-1859.9 -2.1,-6925.1 -2.1,-9151.1 0,-1646.9 -80.6,-8056.7 34.4,-9146.9 1797.9,-132.6 8662.5,-33.1 11342.7,-14.6 716.9,5 838.9,-103.8 1476.2,-202.1 131.7,-516.2 693.1,-681.1 623.2,-1472.5 -16.5,-186.1 -183.9,-489.2 -265.8,-751.9 -109.3,-350.5 -286.1,-294.6 -552.6,-533.9 -287,-257.6 -326.9,-201.4 -771.3,-203.1 -2171.2,-8.5 -11580.4,137.7 -11859.1,-99.5 -82.9,-107.8 -49,34.9 -125.4,-242.3l-51.8 -1218.4c-3.3,-536.2 -0.2,-1072.6 -0.8,-1608.8l-11.6 -6604c-20,-3044.9 109.4,-3153.3 -1753.1,-3125.8 -719.3,10.6 -810.6,-104 -1200.7,482.1 -359.5,540 -212.4,2351.1 -212.4,3067.1l-4.1 29717.8c-4.9,820.5 62.7,633.2 254.4,1321.5 152.9,549.4 163.8,912.8 238.8,1463.4zm97697.2 -13582.7l0 -3045.7 -264.4 -110.7c-33.3,-195.7 -46.2,-414.5 -166.3,-598.3 -430.1,-658.7 -78.7,-162.1 -269.1,-569.2 -95.6,-204.1 -582.3,-752.1 -688.6,-985.8 -556.2,-1223.3 -1747.5,-1816.6 -2049,-2057.7 -139.9,-111.8 -212.1,-246.1 -423.5,-414.8 -528,-421.4 -128.4,64.9 -770.3,-480.6l-1371.4 -755.9c-257.8,-151 -458.8,-72.4 -749.1,-126.7 -319.1,-59.7 -297.1,-155.9 -533.9,-277.8 -2048.1,-168.5 -4736.3,-23.9 -6853.7,-23.9l-10329.5 2.6c-739,0 -774.4,79.3 -1430.5,264 -290.5,81.7 -461.9,43.6 -735,108.8 -328.7,78.5 -375.8,225.9 -605.6,317 -159.3,63.1 -168,6.4 -337.6,92.8 -241.6,123.1 -5.5,51.8 -233.8,196 -1940.7,1225.8 -1093.7,891.4 -2366.8,1950.7 -827.7,688.8 -152.2,437.9 -742.4,1027.8 -450.6,450.4 -756.6,1386.2 -756.6,1386.2 -261.8,424 -123.1,-259 -379,892.4 -80,360.6 -169.1,322.5 -254.1,580.1 -77.9,235.6 -47.9,531.4 -83.8,784.6 -73.5,519.5 -298.7,922.3 -305.9,1463.3l1.1 19057.7c62.8,520.3 512.8,689 845.5,964.3l1141.4 16.4 667.5 -628.5c219.2,-394.9 -164.1,-18681.8 122.4,-20414.1l711.3 -2047.7c1049.6,-1520.8 785.8,-963.3 1738.5,-1992.4 479.4,-517.8 1978.2,-946.8 2664,-1156.8 431,-132.2 13493.7,-33 14055.5,-33.1 1009.3,-0.1 4362.6,-187.2 5188.2,457.8 561,438.4 920.4,574 1528,1258.3 1458.6,1642.9 1592.3,4612.9 1781.8,4870.4 627.6,450.7 1573.4,79.1 2254.7,28.5zm-130763.7 16534.8c1466.1,227.1 -402.7,429.5 2917.1,428.1l24306.9 17.4c314,194.1 209.9,221.2 650,360.6 165.4,612.2 -36.1,356.7 395.6,808.2 -3.3,879.8 112.5,875.6 -404.9,1583.2 -362.5,495.8 -1056.3,336.3 -1664.2,335.4l-19727.4 11.4c-1325.9,0.1 -2653.7,9 -3979.3,-9.7 -863,-12.2 -950.8,104.9 -1726.1,-250.8 -259.6,-119.1 -573.4,-123.3 -792,-223.5 -432.1,-197.9 -225.3,-192.4 -788.5,-234 -446.8,-465.7 -134.3,-262.2 -751.8,-440.3l-184.6 -278.2c-383.1,-19.3 -541.8,-199.5 -830.1,-380.3 -207.6,-130.2 -167.5,-182.9 -322.3,-286.1 -139.2,-92.9 -193.1,-67.2 -393.2,-207.4 -616.5,-432.4 -1890,-1970.8 -2191.7,-2622.5l-402.2 -783.6c-513.6,-1342.6 -484.6,-921 -492.7,-3141.4 -3,-818.5 -0.9,-1637 -0.9,-2455.4 0,-1956.5 -90,-8093.7 61.4,-9572.4 38.4,-376.8 21.1,-802 49.7,-1184.9 23.3,-312.5 1028.7,-2891.6 1149.5,-3033.7 172.5,-202.9 122.7,-96.1 256.6,-360.1 111.6,-220.3 1342.5,-1693.6 1672.6,-1945.4 368.6,-281.2 952.2,-812 1345.2,-1017.1 220.8,-115.3 233.2,-5.5 454.6,-154.2 112.9,-75.8 94.3,-181.2 302.1,-265.3 54.4,-22.1 896.6,-282.5 946.7,-284.9 210.8,-186.6 4.2,-95.4 402.1,-169.2 610,-113.2 735.7,-242.1 1225.1,-280 1486.4,-115 25781,-10.1 25970.6,12.8 1252.2,151.3 1197.6,1807.9 788.6,2683.9 -727.3,446.2 -2176.8,266.9 -3058.2,267.1l-16340.5 -2.8c-1100.6,-8.2 -2201.4,-4.1 -3302,-4.1 -2961.7,0 -5127.5,-368.2 -7432.6,2290.4 -110.6,127.7 -709.6,878.3 -749.1,952.3 -0.2,0.6 -417.9,1153.8 -418.7,1160.6 -112.1,923.5 -32.5,8447.9 -29.5,9721.7 4.7,2121.9 -199,4229.2 487.6,6082.7 14.5,40 116.9,31 228,280.6 196.5,441.8 540.7,871.8 887.8,1259.7 515.2,575.7 1255.1,985.5 1484.7,1331.2zm807.5 -26158.2c-2107.2,311.1 -3422,1598.5 -4125,1928.1 -646.4,303 -664.1,832.5 -1445.1,1587l-1565.5 2894 -450.1 2575.8 -1.8 7626.4c0,1464.3 -149.1,4529.6 157.6,5829.3 212.5,900.8 249.8,1448.4 758.8,2273.3 949,1538 3048.7,3950.6 4702.8,4429.9 784.8,227.5 1950,894.3 3570.1,1001.5 485.1,32.1 1031.6,7.3 1523.8,7.4 4009,0.8 8019.8,-53 12022.3,-60.4 1495.5,-2.8 11422.9,168.8 12001,-215 632.8,-419.9 657.4,-1773.2 525.4,-2425.3 -161.6,-798.8 -1125.5,-1098.5 -1813.5,-1196.7 -2241,-319.8 -19719.1,3.2 -24183.2,-94.2 -497.2,-10.8 -898.3,-95.4 -1425.3,-83.8 -628.5,14 -722.1,-3.2 -1191.7,-409.3 -424.6,-367.1 -1279.9,-1039.8 -1595.5,-1448.7 -254.9,-330 -256.6,-756.1 -429.8,-1025.7 -358,-557 -417.3,36.6 -489.2,-1059.6 -31,-473.5 -158,-866.4 -163.5,-1368 -28.3,-2577.9 -72.3,-11745.9 129.6,-13540 88.9,-790.1 205.3,-483.6 628.8,-915.2 759.1,-773.7 -228.9,-739.5 2273.8,-2300.7 1074.4,-670.3 1164,-613.4 2441.8,-619.3 1015.8,-4.7 2031.2,-4.7 3047,-4.7l21247.7 5.1c833.7,7 1698.4,-171.6 1834.9,-1182.3 381.4,-2822.2 -1851.7,-2264.4 -3778.6,-2264.3 -4035.2,0.1 -8072.3,-1.2 -12107.3,-13 -2033,-5.9 -10797.2,-124.1 -12100.3,68.4zm-47284.1 6099c456.2,-216.2 86.9,-110.5 295.6,-511.1 122.3,-234.7 139.1,64 636.4,-1018.6 265.6,-578.3 85.2,-160.8 476.3,-791.5 128.9,-207.9 434.1,-490.1 608.6,-677l2057.6 -1748.6c498.7,-280.1 421.8,103.9 842.9,-437.2 948.1,-51.3 478.1,-165.3 846.5,-329.3 520.3,-231.6 18289.2,-89 21193,-114.5 754.3,-6.7 1899.4,25.7 2507.8,326.7 274.4,135.8 373.2,68.3 590.7,179.6 125.1,64.1 168.8,172.1 413.9,261.2 509.6,185.2 1625.3,987.7 2047.1,1519.8 283.9,358.2 510.9,471 711.4,723.4l819.3 1296.8c148.8,447.9 16.6,130.9 242.4,428.1 222.5,292.8 523.2,1436 570.1,1553.4 242.8,608.1 237.4,490.5 239.3,1215.1l-3.5 8394.4c-518.3,598.5 -629.4,336.4 -1106.8,780.4l-31260.8 54.7c-355.8,412.9 -413.3,3714.4 -273.2,4374.4 330.2,1555.3 257.2,805.6 465.2,1295.4 493.1,1161.3 10.9,128.5 697.1,1059.3 774.9,1051.2 413.7,513.4 931.4,884.1 215.8,154.5 68.3,101.7 253,309.9 184.1,207.6 437.7,360.7 654.3,539.8 364.5,301.3 763.4,499.2 1168.7,623.4 248.4,76.1 195.4,126.2 380.9,208.4 608.1,269.5 3746.9,155.5 4627.2,155.7 6293.4,0.9 12587.2,-32.8 18880.6,-32.8 1201.9,0 3459.4,-430.5 3550.7,1161.5 51.6,898 47.8,1124.6 -304.5,1472.9 -92.7,91.6 -162.1,221.3 -285.5,300.7 -293.8,188.7 -1843.9,105.9 -2283.3,105.9l-18880.7 -4.9c-1419.3,0 -3391.3,111.9 -4744.3,-8 -401.8,-35.6 -525.7,-199.6 -872.2,-293.4 -1255.9,-339.7 -369.6,-106 -859.4,-319.6 -407.5,-177.6 -349.4,1.4 -877.4,-325.5 -464.5,-287.7 -225.3,-16.8 -608.6,-460.3 -583.7,-80.6 -357.7,-115.7 -767.2,-294.6 100.7,380.8 331,450.5 648.6,637.9 487.8,287.9 257,53.9 632.1,507.8 819.2,72.5 357.8,74.4 889.2,323.8 423.5,198.7 434.6,29.4 721.4,425.4 950.4,-4.9 26463.6,131.1 27043.6,-15.8 701.8,-177.8 566.5,-466.7 1004.1,-784.3 -10.4,-371 16.3,-730.7 14.5,-1099.8 -2.9,-610 -154.4,-344.8 -194.5,-920.5 -205.7,-104 -478.9,-302.9 -730.2,-474.1 -507.9,-345.8 -8014.4,-178.6 -8769,-178.3l-15494 8c-394.8,1.9 -1465.3,38.5 -1815.2,-71 -448.9,-140.5 -67.4,-118.9 -472,-187.7 -1145.4,-194.7 -213.2,136.4 -1170.5,-472.5 -197.5,-125.8 -12.5,-17.3 -177.8,-160.3 -125.3,-108.3 -644.3,-318.2 -1067.5,-890 -260.6,-352.1 177.2,15.6 -355.3,-389.7 -645.1,-491.1 -825.6,-885.2 -1367.7,-1754 -293.3,-470 -231.5,-4211.7 -46.8,-4872.5 4021.3,-289.3 11838.7,-166 16209.4,-179.4 4423,-13.6 10038.7,80.9 14393.7,-47.4 316.3,-9.3 628.1,-5.7 931.7,-82.3 470.8,-118.8 126.5,-250 787.5,-306.9 344.5,-1727.3 131.8,-5209.9 126.3,-7135.5 -2.1,-735.6 67.3,-2867.4 -197,-3439.4 -131.4,-284.4 -153.2,-278.3 -222.4,-631 -113.6,-578.1 -141.3,-132.8 -305.7,-633.6 -279.1,-849.6 -67.4,-193.2 -327.6,-573.2 -132.1,-192.8 -120.9,-275.4 -352.9,-579.7 -152.8,-200.4 -128.1,-267.8 -328.9,-522.9 -139.5,-177.1 -336.7,-347.8 -436.4,-501.2 -219.4,-337.7 -20.1,-335.1 -355.4,-554.7 -287.8,-188.7 -282.8,-120.5 -525.7,-425.9 -250.1,-314.7 -247.5,-134.4 -539.3,-283.9l-1172.3 -709c-383.3,-250.8 -319.2,-142.9 -639.2,-304.7 -291.2,-147.4 -64.7,-205 -522.6,-295.9 -283.6,-56.4 -594.3,-16.5 -870.8,-99.6 -724.5,-217.8 -81.7,-251.8 -1569,-254.3l-18288 -12.8c-2988.6,9.4 -3372.7,602.8 -3810.8,684.4 -785.2,146.1 -31.7,95.7 -858.2,451.6 -265,114.1 -121,73.3 -323.9,205.9 -226.7,148.3 -323,207.4 -561.7,379.9 -610.8,441.1 -1391.1,1238.3 -1834.2,1828.7 -90.8,121.1 -357.6,448.2 -401.5,530.9 -101.8,191.7 -30.2,163 -121.4,316 -72.9,122.4 -106.3,60.7 -216.3,286 -40.2,82.4 -89,261.4 -110.8,292.5 -109.5,155.7 -364.6,35.7 -430.2,1106.9zm177240.4 3776.8l-0.1 -252.4c-681.3,50.6 -1627.1,422.2 -2254.7,-28.5 -189.5,-257.5 -323.2,-3227.5 -1781.8,-4870.4 -607.6,-684.3 -967,-819.9 -1528,-1258.3 -825.6,-645 -4178.9,-457.9 -5188.2,-457.8 -561.8,0.1 -13624.5,-99.1 -14055.5,33.1 -685.8,210 -2184.6,639 -2664,1156.8 -952.7,1029.1 -688.9,471.6 -1738.5,1992.4l-711.3 2047.7c-286.5,1732.3 96.8,20019.2 -122.4,20414.1l-667.5 628.5 -1141.4 -16.4c-332.7,-275.3 -782.7,-444 -845.5,-964.3l-1.1 -19057.7c7.2,-541 232.4,-943.8 305.9,-1463.3 35.9,-253.2 5.9,-549 83.8,-784.6 85,-257.6 174.1,-219.5 254.1,-580.1 255.9,-1151.4 117.2,-468.4 379,-892.4 0,0 306,-935.8 756.6,-1386.2 590.2,-589.9 -85.3,-339 742.4,-1027.8 1273.1,-1059.3 426.1,-724.9 2366.8,-1950.7 228.3,-144.2 -7.8,-72.9 233.8,-196 169.6,-86.4 178.3,-29.7 337.6,-92.8 229.8,-91.1 276.9,-238.5 605.6,-317 273.1,-65.2 444.5,-27.1 735,-108.8 656.1,-184.7 691.5,-264 1430.5,-264l10329.5 -2.6c2117.4,0 4805.6,-144.6 6853.7,23.9 236.8,121.9 214.8,218.1 533.9,277.8 290.3,54.3 491.3,-24.3 749.1,126.7l1371.4 755.9c641.9,545.5 242.3,59.2 770.3,480.6 211.4,168.7 283.6,303 423.5,414.8 301.5,241.1 1492.8,834.4 2049,2057.7 106.3,233.7 593,781.7 688.6,985.8 190.4,407.1 -161,-89.5 269.1,569.2 120.1,183.8 133,402.6 166.3,598.3l264.4 110.7 0 -566.9c-30,-6 -1145.8,-2123.7 -1403.8,-2387.2 -438.7,-448.3 -1830.6,-1761.5 -2350.2,-2073.5 -309,-185.5 -153.1,18.9 -418.6,-239.4 -307.9,-299.9 -99.3,-122.7 -450.3,-262 -325.7,-129.2 -12,-111 -343.4,-302.4 -152.3,-88 -324.1,-70.5 -494.4,-136.6l-927.9 -340c-174.3,-54.5 -290.6,-148.1 -466.4,-206.6 -619.4,-205.9 -6709,-104.1 -7623,-104.1 -3409.2,0 -6837.6,-28.1 -10244.7,3.5 -773,7.3 -2452.1,427.7 -3047.6,803.6 -157.8,99.5 -155.6,185.8 -311,259.3 -512.9,242.9 -1110.1,563.5 -1570.5,1000.8 -258,245.3 -172.8,64 -417.5,271.3 -200.3,169.7 -370.9,477.2 -545.5,708.8 -336.7,446.8 -105.7,114.6 -368.5,328.5 -164.8,134.2 -129,308 -133.5,508.4 -470.2,348.7 -66.6,25.4 -339.5,449.4 -32.9,50.8 -399.2,418.1 -641.7,1026.9 -116.8,293.2 -126.9,345.2 -214.8,624.5 -314.9,1000.7 -584.1,523.1 -588.8,2793.3l19.1 20304.5c564.4,411.9 645.7,561.3 1385.3,664 579,80.4 224.1,136.5 748.2,-84.7 507.8,-214.3 269.9,35.7 718.8,-368.7 613.4,-552.5 537.2,-717.2 526.6,-1549.8 -22.1,-1742.8 -93.4,-18385.7 23.4,-19300.6 30.6,-239.9 117.7,-573.7 220.7,-798.4 210,-458.4 117.4,-1029.7 597.3,-1624l517.7 -576.4c285.7,-284.8 323,-133.3 490.7,-495.2 230,-496.7 1246.9,-912.1 1600.5,-1148.3 110.3,-73.7 173.9,-175.1 312.1,-275.1 1444.8,-230 3319.9,-130.9 4828.5,-128.9 4860.3,6.4 10049.1,-61.9 14839.3,80.4 458.1,518.9 368.5,215.9 608.1,441.3 281.1,264.3 -78.1,62.5 345.7,325.2 866.1,536.8 222.8,247 711.5,630.8 379.2,297.9 676.5,740.9 873.9,1184.1 112.3,251.9 178.9,226.6 233.3,325.4 93.9,170.5 59.3,304 141.2,482.4 108.9,237 140.1,61.5 211,386.6 51.5,236.5 120.1,1973.6 117.4,2283.7 338.4,143.1 264.8,221.6 505.7,365.9 522.7,313.1 979.1,474.4 1607,314.9 217,-55.1 349.7,-231.4 718.7,-300.6zm-145432 3708.4c-540.2,496.7 -828.1,230.7 -1469,189.7 -565.6,-36.2 -1276.7,4.8 -1858.4,5.3 -1206.3,0.9 -2328.9,-76.8 -3556,-76.8l-14478 -82.2c-990.9,-1 -6741.4,111.7 -7196.6,-122.4 -166.1,-166.8 -138.8,-3974.2 -88.5,-4415.8 62.2,-546.3 -27,-820.3 -9.7,-1363.1 22,-688.4 195.4,-740 649.6,-1546.8 103.4,-183.8 -1.1,-72.7 140.3,-217.9 211.7,-217.6 32.8,46.4 237,-178.5l1100.4 -1181.8c137.7,-131.4 354.3,-180.4 518.5,-273.3l1678.3 -558.9c218.7,-18.6 538.1,2.6 769.4,0.3 1014.3,-10.3 2033,9.9 3048,12.2 2032.2,4.6 4063.9,20.5 6096,28.1l8974.7 42.9c255.9,3.3 516.3,-6.1 767,-2.2 414.2,6.5 320.2,79.7 597.2,122 234.2,35.8 516.3,-18.2 750.2,17.7 176.8,27.1 371,125.2 603.7,178.4 308,70.4 726.1,277.5 947.9,488.7 71.3,68 90.3,101.6 174.1,166l939.7 1010.7c99.1,177.7 230.7,280.3 287,473.7 88,303.1 10.6,275.8 149.2,620 123.2,306.1 69.6,382.5 74.5,720.3l153.5 5943.7zm-28653.3 313.6c910.5,221.5 8439.5,116.5 10001.3,116.4 3330.1,-0.3 6660.4,10.4 9990.6,10.3l8808.4 -20.4c398.1,-95.8 283.9,-545 275.8,-948.8 -15,-755.8 51.1,-1804.1 -50,-2510.2 -81.4,-569.6 -119.5,-1714.9 -123.5,-2315.6 -12.5,-1878.9 -75.3,-1253.3 -417,-2130.4 -442.7,-1136.7 -1307.1,-1523.4 -1797.9,-1939.8 -308,-261.5 -188.3,-83.1 -489,-197.6 -199.9,-76.1 -121.5,-124.6 -345,-232.5 -407.2,-196.4 -1862.2,-149.4 -2390.4,-154.1 -3218,-28.3 -18128.7,-446.8 -19728.4,-235.3 -322.7,42.6 -220.9,68.9 -433.8,214 -428.2,291.7 120.6,-239.7 -1129.2,732.9 -2957.2,2301.4 -2561,3538.6 -2525.9,7498.6 17.6,1998.5 -112.4,1082.5 354,2112.5zm100595 -6512.7c582.9,-391.5 466.3,-1109.8 1989.1,-2584.2 339.7,-328.7 1350.3,-932.1 1910.4,-1054.9 597.9,-131.1 340.9,-300.7 1092.6,-330.5l23543.6 42.7c954.8,105 1568.7,775.8 1880.3,959.4 643.4,379.3 1063.8,961 1457.4,1485 433.2,576.6 890.8,1346.3 906.7,2072.3 81.5,3712.1 15.4,7993.4 16.7,11769.1 1.3,3986.1 -118.2,2320.6 -697.1,3747.6 -186.7,460.3 84.6,121.4 -273.9,472.7 -372.6,364.9 -942.5,1227.4 -1859.6,1774.1 -822,490 -1388,605.5 -2365.4,610l-23281.6 -164.2c-866.9,-85.3 -1056,-8.6 -1682.4,-612.4 -303.8,-292.8 -120.9,-66.1 -447.6,-244.9 -551.9,-302.2 -974.2,-1304 -1511.9,-1452.7 259.5,841.8 1865.5,2240.8 2706.4,2395.9 389.3,71.7 657.1,255.1 949.6,305.8l3709.6 24c6487,3.4 13577.2,110.2 19981.2,10.9 1413.3,-21.9 2335.7,-783.6 3287.9,-1715.9 368.4,-360.7 1515.2,-1901.4 1594.1,-2200.1 162.8,-615.4 -46.4,-267.1 318.3,-832.1 29.1,-2341.4 12.1,-4686.7 12.1,-7029.4 0,-1119.4 186.6,-6195.2 -143,-6848.2 -292.9,-580.3 82.7,-727.9 -384.4,-1401.3 -722.6,-1041.2 -1415,-1994.7 -2555.5,-2672.2l-1143.2 -618.7c-448.8,-123 -20250.4,-57.3 -22660.8,-62.2 -680.3,-1.4 -1874.5,-139.8 -2445.1,186.3 -398.7,227.8 -416.1,40.9 -703.3,167.1 -13.9,6.1 -911.4,664.7 -1020.8,741 -698.7,487.1 -2130.2,2177.3 -2180.4,3060zm-134586.6 1859.8c74.9,-541.3 -260.3,-687.5 -378,-1261.9 -89.6,-437.1 -155,-321.8 -276.4,-564.8 -118.1,-236.2 -29.9,-431.5 -176.4,-689.1 -176.4,-310 -159.7,-63.2 -285.3,-541.2 -114.4,-435.2 -166.8,-222.5 -282.9,-548.5 -129.4,-363.6 27.2,-243.8 -224.2,-642.5l-951 -2423.1c-98,-288.1 -211.9,-297.6 -305.3,-529.4l-439.4 -1260.4c-76.9,-212.8 -238.1,-388 -285.9,-549.4 -38.6,-130.6 -22.9,-249.3 -64.5,-378.2 -106,-329.1 -54.4,-26.8 -202,-314.1l-453.6 -1220.3c-35.6,-183.7 -503.2,-1081.2 -713.7,-1853.5 -81.7,-299.7 -195.8,-171 -302,-535.8 -83.7,-287.2 -32.9,-369.4 -201.2,-651.4l-511 -1273.5c-138.4,-516.2 -107.4,-228.1 -311.7,-521.5 -104.3,-149.7 -111.5,-437 -200.9,-634.6 -132.2,-292.2 -187.4,-154.4 -260.1,-549.9l-472.3 -1257.8c-209.7,-419.1 -157.5,-61.9 -234.2,-593.1 -56.9,-393.2 -75.2,-365.6 -319.3,-599.9 -41,-327.9 -17.2,-430 -187.1,-708 -244.8,-401 -106.3,-212.2 -228.7,-616.1l-1288.8 -3022.4c-113.7,-257.8 -94.1,-497.7 -213.2,-730.3 -530.1,-1036.1 -11.1,-324.6 -539.6,-1146.9 -19.1,-29.8 -421.6,-1032.2 -261.3,-1432.1 449.8,-1122.2 1226,-1209.1 2436.2,-986.2 444.1,202.9 1534.5,3125.8 1573.5,3729.1 574.8,451.6 209.9,501.1 467.7,1014.6l570.9 996.7c137.2,249.7 46.6,428.3 151.4,639.8 103.8,209.7 149.5,57.3 271.8,494 181,646.7 328.8,398.3 378.8,1262.6 234.6,163.3 7.6,72.3 330,123 56.8,554.2 25.2,291.5 261.9,661.2 163,254.8 48.3,429.6 246.5,778.5l598.2 1319.4c95.9,554.4 122.3,269.7 319.5,623.5 158.7,284.7 -104.2,-20.2 288.1,725.1 155.6,295.6 -0.5,379.4 277.4,759.3 241.3,329.6 180.2,345.5 242.5,775.7 442.5,388.7 182.7,214.2 373.2,780.4 134.8,400.3 97.7,125.5 220.8,384.2 74.1,155.6 56.6,314 124,487.2 46.7,119.9 150.7,234 209.6,383.3l516.1 1339.5c141,274.8 141.5,109.6 240.6,340.5 94.3,219.5 1.3,340.8 482.3,1302.9 115.6,231.2 123.4,112.9 215.4,371.8 73.3,205.8 44.6,321.6 105,503.3 40.9,122.9 155.6,261.4 211.3,376.3 78.9,162.9 98.9,334 173,501.8l339.9 844.1c101.4,297.7 87.9,108.2 225.3,365.4 97.5,182.6 70.1,279 141,453.8 57.2,141 146.7,218.8 209.4,383.9 52.5,138.5 77.8,340.2 124.5,466.3 72.4,195.4 160.6,245 215.5,389.2 79.6,209.1 41,336.3 138,551.2 100.3,222.8 161.5,198.8 223.7,366.4 56.8,153.3 44.7,323.7 108.5,491.8 87.8,231.5 132.6,159.7 229.9,358.8 71.8,146.8 86.1,403.8 145,533.6 106.7,234.5 117.5,-0.5 233.6,377.6 41.7,136.3 34.9,317.4 102.7,473.1 202.8,465.3 305.4,259.4 338,966.6 508.1,355.4 239.5,326 446.1,780.8 107.3,236 109.4,74.2 209.8,391.4l356.8 940.6c223.6,986.4 155.9,81.1 355.1,917.5 82.3,346 390.8,625.4 710.4,1825.7 108.1,406.5 40.1,114 239.7,401.9 243.3,350.7 57.9,474 368.9,887.8 359.6,478.5 -72.1,543.1 561.6,875.7 -1.1,-344.5 54.7,-500.8 -264.1,-675.1l1.7 -467.1c-355.5,-249.7 -265.1,-23.3 -340,-627.8 -50.4,-406.2 -28.7,-463 -231.6,-777.1 -280.3,-434 -399.2,-1111.6 -598.5,-1433.9 -167.4,-270.9 -71,19.3 -207.6,-302.8l-388.9 -1144.6c-96,-284.1 -254.1,-373.9 -344.8,-657.5 -397.8,-1242.7 -207.3,168.2 -493.9,-1685.7l-193.7 39.3c-61.1,-741.2 -162.8,-398.1 -334.9,-814.4 -57,-137.9 -38.5,-267.5 -131.5,-463.6l-581.3 -1179.3c-150,-362.7 -1.3,-592.7 -376.1,-783.2 -74.4,-785.6 -513.7,-1359 -715.9,-1869.5l-383 -1490.7c-159.1,-496.5 -227,186.3 -402.8,-809.3 -240.7,-113.8 -61.5,19.1 -304,-160.5 -32.3,-639.5 -106.5,-586 -342.9,-1098.3 -94.9,-205.5 -202.5,-305.5 -276.8,-480.6 -106.4,-250.3 -51,-381.8 -144.3,-624.9 -307.6,-801.5 -246.3,-488.2 -535.2,-982.9 -222.4,-380.9 -34,-837.9 -463,-1033.1 -98.1,-946.6 -173.6,-465.5 -340,-772.1 -24.7,-199.9 -63.1,-667 -141.7,-814.3 -123.2,-231 -142,-54.6 -348.8,-575.7 -148.7,-374.6 -213.3,-196.4 -284,-658.6 -85.2,-556.3 -35.7,-209.8 -250.1,-669.4 -134.7,-288.8 -89.8,-434 -231.3,-707.2 -289.9,-559.6 -495.1,-736.8 -562.3,-1326.2 -48.6,-427.4 -7.4,-417.2 -361.2,-572.1l-69.3 -615.2c-148.6,-111.1 -213.5,-161 -314.2,-400.6 -186.2,-443.4 31,-152.4 -287.5,-451 -36,-297 -57.3,-538.8 -159,-812.8 -126.4,-340.6 -194.9,-316.9 -269.3,-731 -337.9,-283.3 -254.6,96.3 -366.4,-427.7 -112.7,-528.1 -471.1,-1077.5 -712.7,-1836.8 -112,-352.1 -227.9,-239.5 -312.4,-533.4 -133.4,-464.3 43.1,-225 -236.5,-642.1 -167.6,-250 -73.8,-376.8 -184.2,-647.3 -172.7,-423.4 -193.1,-44.3 -307,-546.7l-497.7 -1201.7c-614.8,-767 -1909.1,-891.7 -2682,-198.2 -143.2,128.5 -148.6,77.4 -243,183.2 -793.3,889.3 -219.1,1573.7 -107.7,2065.9 116.2,513.4 159.4,346.3 297.8,637.3 109.2,229.7 58.9,456.8 219.6,749.6 196.5,358.2 154.9,232.5 258.4,645.1 70.1,279.8 622.8,1020.4 734.9,2111.4l293.9 131.5c85.1,809.6 258.6,679.7 395.9,1380 70.4,359.2 334.2,902.1 537.8,1220.8 300.2,469.9 -35.9,322.5 437.7,1263.8 345.6,687.4 432.9,418.5 467.8,1336.4l300.9 130.7c29.9,650.9 534.5,1535.9 709.2,2237.6 121,485.7 27.2,407.6 376.4,661.1 -27.4,585.6 216.2,538.2 366.8,1035.2 180.8,596.4 349.2,316 355.4,1102.8 38.1,42.8 264.2,275.8 271.6,288.5 89,151.7 72.8,338.4 177.5,514.4 82.8,139 144.3,97 217.1,325.4 94.1,295.3 4,230.6 167.7,523.5 198.7,355.5 190,627.2 349.7,942.5 261.6,516.2 254.2,378.3 281.9,1040 560.4,474.2 78.2,482.6 649.5,1009.7 6.8,686.3 206.2,698.6 405.8,1270.7 234.7,672.9 360.3,413 379.4,1361.3 315,257.2 153.7,-61.5 330.1,315.5 151.7,324.5 351.7,1300.6 497.8,1521.7l231.1 457.9c114.5,265.4 183.5,200.1 280.8,387.2 192.7,369.6 -15.1,453.4 399.4,873.7 17.9,477.1 -36.9,48.4 190.4,257.3zm77169.2 -8673.6c594.8,86.8 1025.8,-114.5 1566.8,-226.7 749.9,-155.3 21996.1,0.6 25370.5,-6.5 637.3,-1.4 851.8,31.9 1357.9,372.1 477.1,2483.8 -246.1,2154.4 -2289.6,2164.1 -2282.3,10.8 -23264.1,-126.3 -23941.4,53.8 -336.5,89.5 -379.7,189.6 -877.9,258.5 -1110,153.7 -2836.1,1502 -3523.7,2513.7 -202.4,297.6 -259.4,414.8 -379.2,827.9 -76.9,264.9 -333.1,504.9 -512.8,700.5l-11.9 12007.4c0,699 -96.2,3084 511.3,3489.4 58.1,487.4 152.9,761.7 388.2,1152 212.1,352.1 1072,1427.1 1472.2,1681.6 83.6,53.1 207.2,100 219,107.7l176.2 160c179.7,142.2 395,302.9 618.3,331.4 -229.6,-345.7 -969.5,-755.5 -1484.7,-1331.2 -347.1,-387.9 -691.3,-817.9 -887.8,-1259.7 -111.1,-249.6 -213.5,-240.6 -228,-280.6 -686.6,-1853.5 -482.9,-3960.8 -487.6,-6082.7 -3,-1273.8 -82.6,-8798.2 29.5,-9721.7 0.8,-6.8 418.5,-1160 418.7,-1160.6 39.5,-74 638.5,-824.6 749.1,-952.3 2305.1,-2658.6 4470.9,-2290.4 7432.6,-2290.4 1100.6,0 2201.4,-4.1 3302,4.1l16340.5 2.8c881.4,-0.2 2330.9,179.1 3058.2,-267.1 409,-876 463.6,-2532.6 -788.6,-2683.9 -189.6,-22.9 -24484.2,-127.8 -25970.6,-12.8 -489.4,37.9 -615.1,166.8 -1225.1,280 -397.9,73.8 -191.3,-17.4 -402.1,169.2zm88827.9 28134l-263.3 18.7c-252.9,348.3 -462.1,78.9 -895.1,368.2 -351.9,235.1 -526.9,225.8 -947.7,251.5 -476.7,483.7 -1455.4,306.5 -2126.8,310.9l-22464.8 -158.4c-327.1,-47.3 -689.2,-157.1 -983.4,-176.4 -677.4,-44.6 -418.4,71.2 -976.6,-230.7 -333,-180.1 -531.9,-51.2 -870.5,-308.6 -1199.8,-911.9 -526.2,-371.6 -1068.4,-688.2 -874.7,-510.9 -203.9,-91.2 -674.9,-522.3l-885.2 -899.5c-1368.1,-1519.9 -1017.2,-1376.4 -1517.3,-2045.9 -264.5,-354.1 -7.1,-408.3 -442.1,-725.4 -99.6,-433.6 -39.4,-620.7 -236.8,-1059.9 -379.4,-843.9 -212.8,-7053.7 -225.5,-8090.6 -10.4,-856.3 -79.9,-6439.8 41.5,-7086.8 35.9,-191.3 96.6,-290.2 136.5,-433.1 56,-200.9 25.1,-315.7 69,-525.5 92.3,-441.1 130.7,-532.8 184.7,-1029.5 253.4,-278.8 187.2,-48.3 314.6,-347.8l487.6 -896.3c337.6,-445 1006.1,-1557.5 1542.8,-1753.4l21.7 -228.9c-475.8,83.5 -873.3,217 -1092.2,656.1 -162.1,324.9 -172.1,263.3 -352.1,507.5 -129.1,174.9 -10,93.4 -158,275.5 -100.9,124 -91.7,65.4 -220.8,174.7 -143.2,563.7 45.9,220.8 -276.2,686.2 -121,174.8 -196.7,364.7 -346.6,579.9 -253.5,363.6 -61.2,394.5 -218.7,722.3 -617.8,1284.6 -153.9,696.6 -435.3,1416.1 -206.6,528.3 -152.2,13058.4 7.2,13954.1 65.8,369.5 142.5,1416.6 228.7,1643.2 149.4,392.5 182.2,127.1 273.4,656.1 74.8,433.6 132.9,356.3 312.3,682.8l363.4 562.9c303.5,519.4 461.7,1019.7 1149.2,1756.1l1084.6 1197.1c183.8,153.5 111.5,9.2 319.9,200.3 444.6,407.6 -17,167.4 654.3,361.4 261.5,491.9 840.7,593.9 1365.9,684.7 423.6,73.3 322.6,232.1 677.7,317.7 1876.2,452.4 2814.4,327.7 4821.7,333.5 2737.6,7.9 5474.9,9.3 8212.7,21 917,3.9 12726.3,83.8 13247.9,-60.1 303.5,-83.7 388,-226.2 728.3,-280.8 485,-77.8 1292.5,-351.2 1432.7,-790.4zm-151963.2 -7503.1c-392.5,256.7 -68,280.8 -351,661.3l-557.2 1216c-87.6,342.8 -85.4,312.9 -233.3,618.4 -368,759.6 -602.3,1893.7 -1009.4,2544.9 -159.5,255.2 -114.4,470 -194.1,777 -79.9,307.8 -169.6,311.8 -254.5,590.9 -73.5,241.8 -414.2,989.9 -546.1,1193.3 -489.5,754.7 -1775,934 -2499.5,458.8 -177.5,-206.6 -532,-729.3 -594.7,-982.2 -128.9,-520.1 -132.3,-217.2 -249.1,-523.8 -81.4,-214 -28.5,-391.3 -138.2,-643.4l-492.9 -1024.4c-196,-320.9 -456.2,-1421.7 -671.4,-1700.1 -365.2,-472.5 18.9,-162.2 -462,-1050.7 -154.7,-285.9 -75.1,-363.5 -172.9,-595.8 -103.7,-246.3 -159.5,-104 -260.2,-496 -116.8,-455.1 24.7,-191.2 -235.5,-535.2 -359.9,-476 42.2,-808.4 -586.4,-1020.9 -63.6,490.1 130.8,251.5 230.2,746.2 123,612.5 108.5,285.3 291.8,649.1 96.6,191.9 78.9,467.2 211.7,726.6 175.9,343.7 166,401.3 304.9,716.3 169.2,384 217.4,88 316.3,611.5 103.3,546.9 -42.1,344.8 240.3,796.7 150.1,240.2 95.3,358 296.8,631.3 206.9,280.4 158.4,499.6 171.6,865.3 56.1,69.5 254.5,265.8 271.9,296.2l542.7 1424c102.8,291.1 132.5,184.3 205.3,350.8 210.3,481.1 -180.8,63.7 482.1,902.4 293,370.8 936.7,514.8 1445,489.7 521.9,-25.7 954.6,-252.4 1258.1,-588.4 236.4,-261.7 193.4,-59.1 349.1,-327.7 201.9,-348.5 194.5,-581.7 529.3,-778.7 14.4,-522.9 144.4,-540.2 181,-925 95.2,-1001.4 463.6,-773.5 652.8,-1662.1 32.1,-150.9 69.3,-397.6 104.2,-526.6 83.8,-309.6 93.2,-133.1 224.7,-341.4l615.4 -1684.8c226.8,-308.4 153.1,-561.2 329.3,-858.2 262.9,-443.4 283.5,-420.2 253.9,-1001.3z"
   id="path122" />
  
 </g>
</svg>
